<svg id="Layer_1" data-name="Layer 1" xmlns="http://www.w3.org/2000/svg" xmlns:xlink="http://www.w3.org/1999/xlink" viewBox="0 0 2599.71 1461.63"><defs><style>.cls-1{fill:none;}.cls-2{fill:#fff;}.cls-3{fill:#4e73df;}.cls-4{fill:url(#New_Pattern);}</style><pattern id="New_Pattern" data-name="New Pattern" width="632" height="906.56" patternTransform="translate(736.86 151.62)" patternUnits="userSpaceOnUse" viewBox="0 0 632 906.55"><rect class="cls-1" width="632" height="906.56"/><path class="cls-2" d="M410.06,744.66a2.29,2.29,0,1,0,0-4.58,15.37,15.37,0,1,1,4-30.19,2.28,2.28,0,0,0,2.87-2.09,30.66,30.66,0,0,1,58.73-10.61,2.28,2.28,0,0,0,2.08,1.37,20.76,20.76,0,0,1-.2,41.52,2.29,2.29,0,1,0,0,4.58A25.34,25.34,0,0,0,479.23,694a35.24,35.24,0,0,0-66.65,10.9,19.63,19.63,0,0,0-2.52-.17,19.95,19.95,0,0,0,0,39.89Z"/><path class="cls-2" d="M477.62,708.9A10.45,10.45,0,0,1,488,719.32a2.29,2.29,0,1,0,4.58,0,15.06,15.06,0,0,0-14.87-15,2.29,2.29,0,0,0,0,4.58Z"/><path class="cls-2" d="M466.17,701.32a2.27,2.27,0,0,0,2.09,1.37,2.28,2.28,0,0,0,2.1-3.2,24.9,24.9,0,0,0-22.83-15,2.29,2.29,0,1,0,0,4.57A20.34,20.34,0,0,1,466.17,701.32Z"/><path class="cls-2" d="M421,740.76l-11,11a2.29,2.29,0,0,0,3.24,3.23l11-11a2.29,2.29,0,1,0-3.24-3.23Z"/><path class="cls-2" d="M430.46,752.42a2.31,2.31,0,0,0,1.62-.67l7.75-7.76a2.28,2.28,0,1,0-3.23-3.23l-7.76,7.75a2.29,2.29,0,0,0,1.62,3.91Z"/><path class="cls-2" d="M428.84,767.31a2.27,2.27,0,0,0,3.24,0L455.4,744a2.28,2.28,0,0,0-3.23-3.23l-23.33,23.32A2.29,2.29,0,0,0,428.84,767.31Z"/><path class="cls-2" d="M454.15,759.86a2.27,2.27,0,0,0,1.62-.67L471,744a2.29,2.29,0,0,0-3.24-3.24L452.54,756a2.29,2.29,0,0,0,1.61,3.91Z"/><path class="cls-2" d="M343.94,852a2.29,2.29,0,1,0,0-4.58,15.37,15.37,0,1,1,4-30.2,2.29,2.29,0,0,0,2.87-2.09,30.66,30.66,0,0,1,58.73-10.61,2.29,2.29,0,0,0,2.08,1.38,20.76,20.76,0,0,1-.2,41.52,2.29,2.29,0,0,0,0,4.58,25.34,25.34,0,0,0,1.71-50.62,35.24,35.24,0,0,0-66.65,10.89,19.61,19.61,0,0,0-2.52-.16,19.95,19.95,0,0,0,0,39.89Z"/><path class="cls-2" d="M411.5,816.23a10.46,10.46,0,0,1,10.33,10.42,2.29,2.29,0,1,0,4.58,0,15.06,15.06,0,0,0-14.87-15,2.29,2.29,0,1,0,0,4.58Z"/><path class="cls-2" d="M381.41,791.86a2.29,2.29,0,0,0,0,4.58A20.32,20.32,0,0,1,400,808.65a2.29,2.29,0,1,0,4.2-1.82A24.9,24.9,0,0,0,381.41,791.86Z"/><path class="cls-2" d="M356,847.41a2.9,2.9,0,1,0,2.9,2.89A2.89,2.89,0,0,0,356,847.41Z"/><path class="cls-2" d="M350.19,863.19a2.9,2.9,0,1,0,2.9-2.89A2.9,2.9,0,0,0,350.19,863.19Z"/><circle class="cls-2" cx="377.48" cy="866.09" r="2.89"/><path class="cls-2" d="M376.49,851.73a2.9,2.9,0,1,0,2.89-2.9A2.89,2.89,0,0,0,376.49,851.73Z"/><path class="cls-2" d="M370.77,857.41a2.9,2.9,0,1,0-2.9,2.89A2.9,2.9,0,0,0,370.77,857.41Z"/><path class="cls-2" d="M401.85,850.3a2.9,2.9,0,1,0-2.9,2.9A2.89,2.89,0,0,0,401.85,850.3Z"/><path class="cls-2" d="M388.88,860.3a2.9,2.9,0,1,0,2.9-2.89A2.89,2.89,0,0,0,388.88,860.3Z"/><path class="cls-2" d="M549.06,724.48A20,20,0,0,1,569,704.54a18,18,0,0,1,2.52.17,35.19,35.19,0,0,1,50.25-27.23,23.74,23.74,0,0,1,37,29.7,25,25,0,0,1,3,11.91,25.37,25.37,0,0,1-25.34,25.34H569A20,20,0,0,1,549.06,724.48Zm76.78-44.69a35.15,35.15,0,0,1,12.33,14,25.3,25.3,0,0,1,17.88,9.29,19.16,19.16,0,0,0-30.21-23.31Zm-72.21,44.69A15.39,15.39,0,0,0,569,739.85h67.46a20.76,20.76,0,0,0,.2-41.52,2.3,2.3,0,0,1-2.08-1.37,30.66,30.66,0,0,0-58.73,10.6,2.25,2.25,0,0,1-.94,1.73,2.29,2.29,0,0,1-1.93.37,15.32,15.32,0,0,0-19.35,14.82Z"/><path class="cls-2" d="M606.47,688.87a20.33,20.33,0,0,1,18.63,12.22,2.29,2.29,0,0,0,4.2-1.83,24.91,24.91,0,0,0-22.83-15,2.29,2.29,0,1,0,0,4.57Z"/><path class="cls-2" d="M623.06,671.91a2.29,2.29,0,0,0,3.24,0,2.3,2.3,0,0,0,0-3.24L621.58,664a2.29,2.29,0,0,0-3.24,3.24Z"/><path class="cls-2" d="M595.55,967.65a2.28,2.28,0,0,0-2.28-2.29,15.37,15.37,0,1,1,4-30.2,2.27,2.27,0,0,0,1.94-.36,2.33,2.33,0,0,0,.94-1.73,30.66,30.66,0,0,1,58.72-10.61,2.26,2.26,0,0,0,2.08,1.37,20.77,20.77,0,0,1-.2,41.53,2.29,2.29,0,1,0,0,4.58,25.34,25.34,0,0,0,1.71-50.63,35.24,35.24,0,0,0-66.65,10.9,19.36,19.36,0,0,0-2.51-.17,20,20,0,1,0,0,39.9A2.29,2.29,0,0,0,595.55,967.65Z"/><path class="cls-2" d="M428.69,924.48a19.34,19.34,0,0,0,5.7,13.76,2.29,2.29,0,0,0,3.24-3.24,14.87,14.87,0,1,1,21,0l-32.62,32.62a2.29,2.29,0,1,0,3.24,3.23l32.61-32.61a19.45,19.45,0,1,0-33.21-13.76Z"/><path class="cls-2" d="M458,899.89a2.29,2.29,0,0,0,3.15-.72,14.88,14.88,0,0,1,25.15,15.9,2.29,2.29,0,1,0,3.87,2.45,19.48,19.48,0,0,0-6.05-26.84,19.47,19.47,0,0,0-26.84,6.05A2.3,2.3,0,0,0,458,899.89Z"/><path class="cls-2" d="M594.63,795a2.27,2.27,0,0,0-2.1-1.4,2.29,2.29,0,0,0-2.11,1.4A12.72,12.72,0,0,1,567,795a2.29,2.29,0,0,0-4.22,0,12.72,12.72,0,0,1-23.43,0,2.29,2.29,0,0,0-4.22,0,12.72,12.72,0,0,1-24.43-5,2.29,2.29,0,0,0-4.58,0,17.3,17.3,0,0,0,31.12,10.4,17.3,17.3,0,0,0,27.65,0,17.3,17.3,0,0,0,27.65,0,17.29,17.29,0,0,0,31.11-10.4,2.29,2.29,0,1,0-4.57,0,12.72,12.72,0,0,1-24.44,5Z"/><path class="cls-2" d="M621.36,810.51a2.28,2.28,0,0,0-2.29,2.29,12.72,12.72,0,0,1-24.44,5,2.27,2.27,0,0,0-2.1-1.4,2.29,2.29,0,0,0-2.11,1.4,12.72,12.72,0,0,1-23.43,0,2.29,2.29,0,0,0-4.22,0,12.72,12.72,0,0,1-23.43,0,2.29,2.29,0,0,0-4.22,0,12.72,12.72,0,0,1-24.43-5,2.29,2.29,0,0,0-4.58,0,17.3,17.3,0,0,0,31.12,10.4,17.32,17.32,0,0,0,27.65,0,17.32,17.32,0,0,0,27.65,0,17.3,17.3,0,0,0,31.11-10.4A2.28,2.28,0,0,0,621.36,810.51Z"/><path class="cls-2" d="M621.36,833.24a2.28,2.28,0,0,0-2.29,2.29,12.72,12.72,0,0,1-24.44,5,2.28,2.28,0,0,0-4.21,0,12.72,12.72,0,0,1-23.43,0,2.29,2.29,0,0,0-4.22,0,12.72,12.72,0,0,1-23.43,0,2.29,2.29,0,0,0-4.22,0,12.72,12.72,0,0,1-24.43-5,2.29,2.29,0,0,0-4.58,0,17.3,17.3,0,0,0,31.12,10.4,17.32,17.32,0,0,0,27.65,0,17.32,17.32,0,0,0,27.65,0,17.3,17.3,0,0,0,31.11-10.4A2.28,2.28,0,0,0,621.36,833.24Z"/><path class="cls-2" d="M223.3,920.33a20,20,0,0,1,19.95-20,19.36,19.36,0,0,1,2.51.17,35.24,35.24,0,0,1,66.65-10.9,25.34,25.34,0,0,1-1.71,50.63H243.25A20,20,0,0,1,223.3,920.33Zm4.58,0a15.38,15.38,0,0,0,15.37,15.37H310.7a20.76,20.76,0,0,0,.2-41.52,2.3,2.3,0,0,1-2.08-1.38,30.66,30.66,0,0,0-58.72,10.61,2.3,2.3,0,0,1-.94,1.73,2.27,2.27,0,0,1-1.94.36,15.31,15.31,0,0,0-19.34,14.83Z"/><path class="cls-2" d="M310.8,904.51a10.45,10.45,0,0,1,10.33,10.42,2.29,2.29,0,1,0,4.58,0,15.05,15.05,0,0,0-14.86-15h0a2.29,2.29,0,0,0,0,4.58Z"/><path class="cls-2" d="M280.71,884.72a20.33,20.33,0,0,1,18.64,12.21,2.29,2.29,0,1,0,4.19-1.83,24.91,24.91,0,0,0-22.83-15,2.29,2.29,0,1,0,0,4.58Z"/><path class="cls-2" d="M-82.94,724.48A20,20,0,0,1-63,704.54a18,18,0,0,1,2.52.17A35.21,35.21,0,0,1-25.53,674a35.16,35.16,0,0,1,15.3,3.52,23.74,23.74,0,0,1,37,29.7,25,25,0,0,1,3,11.91A25.37,25.37,0,0,1,4.46,744.43H-63A20,20,0,0,1-82.94,724.48Zm76.78-44.69a35.15,35.15,0,0,1,12.33,14,25.3,25.3,0,0,1,17.88,9.29,19.07,19.07,0,0,0,3-10.25,19.17,19.17,0,0,0-33.2-13.06Zm-72.21,44.69A15.39,15.39,0,0,0-63,739.85H4.46a20.76,20.76,0,0,0,.2-41.52A2.3,2.3,0,0,1,2.58,697a30.66,30.66,0,0,0-28.11-18.42,30.64,30.64,0,0,0-30.62,29,2.25,2.25,0,0,1-.94,1.73,2.29,2.29,0,0,1-1.93.37,15.37,15.37,0,0,0-4-.54A15.39,15.39,0,0,0-78.37,724.48Z"/><path class="cls-2" d="M4.56,708.66a10.47,10.47,0,0,1,10.33,10.43,2.29,2.29,0,0,0,4.58,0,15,15,0,0,0-14.87-15,2.33,2.33,0,0,0-2.31,2.26A2.28,2.28,0,0,0,4.56,708.66Z"/><path class="cls-2" d="M28.74,674.26a2.27,2.27,0,0,0,1.62-.67l4.72-4.72a2.28,2.28,0,1,0-3.23-3.23l-4.73,4.71a2.29,2.29,0,0,0,1.62,3.91Z"/><path class="cls-2" d="M32.6,684.3a2.28,2.28,0,0,0,2.21,1.7,2,2,0,0,0,.59-.08l6.45-1.73a2.29,2.29,0,0,0-1.18-4.42l-6.45,1.73A2.29,2.29,0,0,0,32.6,684.3Z"/><path class="cls-2" d="M34.79,694.7a2.29,2.29,0,0,0-1.19,4.42l6.45,1.73a2.46,2.46,0,0,0,.59.08,2.29,2.29,0,0,0,.59-4.5Z"/><path class="cls-2" d="M2.21,664.82a2.28,2.28,0,0,0,2.21,1.69,2,2,0,0,0,.59-.08,2.28,2.28,0,0,0,1.62-2.8L4.9,657.19a2.29,2.29,0,0,0-4.42,1.18Z"/><path class="cls-2" d="M17,667.05a2.33,2.33,0,0,0,.59.08,2.29,2.29,0,0,0,2.21-1.7L21.56,659a2.29,2.29,0,0,0-4.43-1.18l-1.72,6.45A2.29,2.29,0,0,0,17,667.05Z"/><path class="cls-2" d="M175.47,837.28,161.66,841l7.35,4.25a2.29,2.29,0,1,1-2.29,4L159.37,845l3.7,13.81a2.28,2.28,0,0,1-1.62,2.8,2,2,0,0,1-.59.08,2.28,2.28,0,0,1-2.21-1.7l-4.89-18.23L140.33,834l-16.79,9.7v15.51l13.35,13.35a2.3,2.3,0,0,1,0,3.24,2.29,2.29,0,0,1-3.24,0l-10.11-10.11v8.49a2.29,2.29,0,0,1-4.58,0v-8.49l-10.11,10.11a2.31,2.31,0,0,1-1.62.67,2.29,2.29,0,0,1-1.61-3.91L119,859.16V843.65L102.17,834l-13.44,7.75L83.85,860a2.28,2.28,0,0,1-2.21,1.69,2,2,0,0,1-.59-.08,2.28,2.28,0,0,1-1.62-2.8L83.13,845l-7.35,4.25a2.29,2.29,0,0,1-2.29-4L80.84,841,67,837.28a2.29,2.29,0,0,1,1.18-4.42l18.24,4.89L99.88,830V810.6l-13.43-7.75-18.24,4.88a2,2,0,0,1-.59.08,2.29,2.29,0,0,1-.59-4.5l13.81-3.7-7.35-4.24a2.29,2.29,0,0,1,2.28-4l7.36,4.25-3.7-13.81a2.29,2.29,0,1,1,4.42-1.19l4.88,18.23,13.44,7.76L119,797V781.43l-13.35-13.34a2.29,2.29,0,1,1,3.24-3.24L119,775v-8.49a2.29,2.29,0,0,1,4.58,0V775l10.11-10.11a2.29,2.29,0,0,1,3.24,3.24l-13.35,13.34V797l16.79,9.69,13.43-7.76,4.89-18.23a2.29,2.29,0,1,1,4.42,1.19l-3.7,13.81,7.35-4.25a2.29,2.29,0,1,1,2.29,4l-7.35,4.25,13.81,3.7a2.29,2.29,0,0,1-.59,4.5,2,2,0,0,1-.59-.08l-18.24-4.88-13.43,7.75V830l13.43,7.76,18.24-4.89a2.29,2.29,0,1,1,1.18,4.42ZM138,810.6l-16.79-9.69-16.79,9.69V830l16.79,9.69L138,830Z"/><path class="cls-2" d="M-36.45,967.65a2.28,2.28,0,0,0-2.28-2.29A15.4,15.4,0,0,1-54.11,950a15.39,15.39,0,0,1,15.38-15.37,15.35,15.35,0,0,1,4,.54,2.27,2.27,0,0,0,1.94-.36,2.33,2.33,0,0,0,.94-1.73A30.63,30.63,0,0,1-1.27,904a30.66,30.66,0,0,1,28.11,18.42,2.26,2.26,0,0,0,2.08,1.37,20.77,20.77,0,0,1-.2,41.53,2.29,2.29,0,1,0,0,4.58,25.34,25.34,0,0,0,1.71-50.63,35.26,35.26,0,0,0-31.7-19.85,35.22,35.22,0,0,0-34.95,30.75,19.36,19.36,0,0,0-2.51-.17,20,20,0,0,0-20,20,20,20,0,0,0,20,20A2.29,2.29,0,0,0-36.45,967.65Z"/><path class="cls-2" d="M232.55,809.14a47.15,47.15,0,0,1-33.34-80.48l31.72-31.73a2.29,2.29,0,0,1,3.24,0l31.72,31.73a47.15,47.15,0,0,1-33.34,80.48Zm-30.1-17a42.57,42.57,0,0,0,60.2-60.21l-30.1-30.1-30.1,30.1A42.62,42.62,0,0,0,202.45,792.1Z"/><path class="cls-2" d="M232.55,791.59a29.6,29.6,0,0,1-20.93-50.52l19.31-19.31a2.29,2.29,0,0,1,3.24,0l19.3,19.31a29.59,29.59,0,0,1-20.92,50.52Zm0-4.58h0a25,25,0,0,0,17.69-42.71l-17.69-17.69L214.86,744.3A25,25,0,0,0,232.55,787Z"/><path class="cls-2" d="M190.57,676.28a2.29,2.29,0,0,1-4.58,0,10.77,10.77,0,0,0-21.54,0,2.29,2.29,0,0,1-4.58,0,10.77,10.77,0,0,0-21.54,0V715A11.68,11.68,0,0,1,115,715v-2.69a2.29,2.29,0,0,1,4.58,0V715a7.1,7.1,0,0,0,14.19,0V676.28a10.77,10.77,0,0,0-21.54,0,2.29,2.29,0,1,1-4.58,0,10.77,10.77,0,0,0-21.54,0,2.29,2.29,0,0,1-4.58,0,54.53,54.53,0,0,1,109.06,0Zm-6.09-12.22a50,50,0,0,0-96.87,0,15.28,15.28,0,0,1,22.31,4.19,15.31,15.31,0,0,1,26.12,0,15.31,15.31,0,0,1,26.12,0,15.29,15.29,0,0,1,22.32-4.19Z"/><path class="cls-2" d="M669.65,571.87H621.26a2.29,2.29,0,0,1-1.79-3.72l43.13-53.79a2.28,2.28,0,0,1,1.78-.85h26.26a2.28,2.28,0,0,1,1.87,3.6l-22.08,31.65h40.7a2.29,2.29,0,0,1,1.73,3.79l-62.51,72a2.32,2.32,0,0,1-1.73.79,2.25,2.25,0,0,1-1.24-.37,2.28,2.28,0,0,1-.84-2.88Zm3.57-4.58a2.29,2.29,0,0,1,2.08,3.25l-17.9,38.88,48.71-56.07H666a2.28,2.28,0,0,1-1.87-3.6l22.08-31.66H665.48L626,567.29Z"/><path class="cls-2" d="M539.3,467.05a20,20,0,0,1,20-19.94,19.34,19.34,0,0,1,2.51.16,35.24,35.24,0,0,1,66.65-10.89A25.34,25.34,0,0,1,626.7,487H559.25A20,20,0,0,1,539.3,467.05Zm4.58,0a15.38,15.38,0,0,0,15.37,15.37H626.7a20.76,20.76,0,0,0,.2-41.52,2.3,2.3,0,0,1-2.08-1.38,30.66,30.66,0,0,0-58.72,10.61,2.29,2.29,0,0,1-2.88,2.09,15.79,15.79,0,0,0-4-.54A15.39,15.39,0,0,0,543.88,467.05Z"/><path class="cls-2" d="M626.8,451.23a10.46,10.46,0,0,1,10.33,10.43,2.29,2.29,0,0,0,4.58,0,15,15,0,0,0-14.86-15h0a2.29,2.29,0,0,0,0,4.57Z"/><path class="cls-2" d="M596.71,431.44a20.34,20.34,0,0,1,18.64,12.22,2.29,2.29,0,1,0,4.19-1.83,24.9,24.9,0,0,0-22.83-15,2.29,2.29,0,0,0,0,4.58Z"/><path class="cls-2" d="M94.06,291.39a2.29,2.29,0,0,0,0-4.58,15.37,15.37,0,1,1,4-30.2,2.28,2.28,0,0,0,2.87-2.09,30.66,30.66,0,0,1,58.73-10.61,2.26,2.26,0,0,0,2.08,1.37,20.77,20.77,0,0,1-.2,41.53,2.29,2.29,0,0,0,0,4.58,25.34,25.34,0,0,0,1.71-50.63,35.24,35.24,0,0,0-66.65,10.9,19.63,19.63,0,0,0-2.52-.17,20,20,0,0,0,0,39.9Z"/><path class="cls-2" d="M161.62,255.62A10.45,10.45,0,0,1,172,266a2.29,2.29,0,1,0,4.58,0,15.06,15.06,0,0,0-14.87-15,2.29,2.29,0,0,0,0,4.58Z"/><path class="cls-2" d="M150.17,248a2.28,2.28,0,0,0,2.09,1.38,2.48,2.48,0,0,0,.92-.19,2.29,2.29,0,0,0,1.18-3,24.9,24.9,0,0,0-22.83-15,2.29,2.29,0,1,0,0,4.58A20.33,20.33,0,0,1,150.17,248Z"/><path class="cls-2" d="M105,287.48l-11,11a2.29,2.29,0,0,0,1.62,3.91,2.33,2.33,0,0,0,1.62-.67l11-11a2.29,2.29,0,0,0-3.24-3.23Z"/><path class="cls-2" d="M114.46,299.14a2.27,2.27,0,0,0,1.62-.67l7.75-7.76a2.28,2.28,0,0,0-3.23-3.23l-7.76,7.75a2.3,2.3,0,0,0,0,3.24A2.27,2.27,0,0,0,114.46,299.14Z"/><path class="cls-2" d="M112.84,314a2.29,2.29,0,0,0,3.24,0l23.32-23.33a2.28,2.28,0,0,0-3.23-3.23L112.84,310.8A2.3,2.3,0,0,0,112.84,314Z"/><path class="cls-2" d="M138.15,306.58a2.27,2.27,0,0,0,1.62-.67L155,290.72a2.29,2.29,0,0,0-3.24-3.24l-15.19,15.2a2.28,2.28,0,0,0,1.61,3.9Z"/><path class="cls-2" d="M27.94,398.72a2.29,2.29,0,0,0,0-4.58,15.37,15.37,0,1,1,0-30.73,15.79,15.79,0,0,1,4,.53,2.29,2.29,0,0,0,2.87-2.09,30.66,30.66,0,0,1,58.73-10.6,2.3,2.3,0,0,0,2.08,1.37,20.76,20.76,0,0,1-.2,41.52,2.29,2.29,0,1,0,0,4.58,25.34,25.34,0,0,0,1.71-50.62A35.24,35.24,0,0,0,30.46,359a18,18,0,0,0-2.52-.17,19.95,19.95,0,0,0,0,39.89Z"/><path class="cls-2" d="M95.5,363a10.45,10.45,0,0,1,10.33,10.42,2.29,2.29,0,1,0,4.58,0,15,15,0,0,0-14.87-15,2.27,2.27,0,0,0-2.31,2.26A2.3,2.3,0,0,0,95.5,363Z"/><path class="cls-2" d="M65.41,338.59a2.29,2.29,0,1,0,0,4.57A20.33,20.33,0,0,1,84,355.38a2.29,2.29,0,0,0,4.2-1.83A24.9,24.9,0,0,0,65.41,338.59Z"/><path class="cls-2" d="M40,394.13a2.9,2.9,0,1,0,2.9,2.9A2.89,2.89,0,0,0,40,394.13Z"/><path class="cls-2" d="M34.19,409.92a2.9,2.9,0,1,0,2.9-2.9A2.89,2.89,0,0,0,34.19,409.92Z"/><path class="cls-2" d="M58.58,412.81a2.9,2.9,0,1,0,2.9-2.89A2.9,2.9,0,0,0,58.58,412.81Z"/><path class="cls-2" d="M60.49,398.45a2.9,2.9,0,1,0,2.89-2.89A2.89,2.89,0,0,0,60.49,398.45Z"/><path class="cls-2" d="M54.77,404.13a2.9,2.9,0,1,0-2.9,2.89A2.89,2.89,0,0,0,54.77,404.13Z"/><path class="cls-2" d="M85.85,397a2.9,2.9,0,1,0-2.9,2.89A2.9,2.9,0,0,0,85.85,397Z"/><path class="cls-2" d="M72.88,407a2.9,2.9,0,1,0,2.9-2.89A2.9,2.9,0,0,0,72.88,407Z"/><path class="cls-2" d="M233.06,271.21A20,20,0,0,1,253,251.26a19.63,19.63,0,0,1,2.52.17,35.19,35.19,0,0,1,50.25-27.23,23.74,23.74,0,0,1,37,29.7,25,25,0,0,1,3,11.91,25.37,25.37,0,0,1-25.34,25.34H253A20,20,0,0,1,233.06,271.21Zm76.78-44.7a35.22,35.22,0,0,1,12.33,14,25.34,25.34,0,0,1,17.88,9.29,19.16,19.16,0,0,0-30.21-23.31Zm-72.21,44.7A15.39,15.39,0,0,0,253,286.58h67.46a20.77,20.77,0,0,0,.2-41.53,2.28,2.28,0,0,1-2.08-1.37,30.66,30.66,0,0,0-58.73,10.61,2.29,2.29,0,0,1-2.87,2.09,15.32,15.32,0,0,0-19.35,14.83Z"/><path class="cls-2" d="M320.56,255.39a10.46,10.46,0,0,1,10.33,10.42,2.29,2.29,0,0,0,4.58,0,15.06,15.06,0,0,0-14.87-15,2.33,2.33,0,0,0-2.31,2.27A2.3,2.3,0,0,0,320.56,255.39Z"/><path class="cls-2" d="M290.47,235.6a20.32,20.32,0,0,1,18.63,12.21,2.29,2.29,0,0,0,4.2-1.83,24.91,24.91,0,0,0-22.83-15,2.29,2.29,0,0,0,0,4.58Z"/><path class="cls-2" d="M344.74,221a2.27,2.27,0,0,0,1.62-.67l4.72-4.72a2.28,2.28,0,1,0-3.23-3.23l-4.73,4.72a2.29,2.29,0,0,0,1.62,3.9Z"/><path class="cls-2" d="M348.6,231a2.28,2.28,0,0,0,2.21,1.69,2,2,0,0,0,.59-.08l6.45-1.72a2.29,2.29,0,1,0-1.18-4.42l-6.45,1.72A2.3,2.3,0,0,0,348.6,231Z"/><path class="cls-2" d="M350.79,241.42a2.29,2.29,0,0,0-1.19,4.43l6.45,1.72a2,2,0,0,0,.59.08,2.29,2.29,0,0,0,.59-4.5Z"/><path class="cls-2" d="M307.06,218.63a2.29,2.29,0,0,0,3.24-3.23l-4.72-4.72a2.29,2.29,0,0,0-3.24,3.24Z"/><path class="cls-2" d="M318.21,211.54a2.29,2.29,0,0,0,2.21,1.7,2.46,2.46,0,0,0,.59-.08,2.3,2.3,0,0,0,1.62-2.81l-1.73-6.44a2.29,2.29,0,1,0-4.42,1.18Z"/><path class="cls-2" d="M333,213.77a2.33,2.33,0,0,0,.59.08,2.28,2.28,0,0,0,2.21-1.7l1.73-6.44a2.29,2.29,0,0,0-4.43-1.19L331.41,211A2.29,2.29,0,0,0,333,213.77Z"/><path class="cls-2" d="M491.47,384l-13.81,3.7L485,392a2.29,2.29,0,0,1-2.29,4l-7.35-4.25,3.7,13.81a2.3,2.3,0,0,1-1.62,2.81,2.44,2.44,0,0,1-.59.07,2.28,2.28,0,0,1-2.21-1.69l-4.89-18.23-13.43-7.76-16.79,9.69v15.52l13.35,13.34a2.29,2.29,0,0,1-1.62,3.91,2.27,2.27,0,0,1-1.62-.67l-10.11-10.11v8.49a2.29,2.29,0,1,1-4.58,0v-8.49l-10.11,10.11a2.29,2.29,0,0,1-3.23-3.24L435,405.89V390.37l-16.79-9.69-13.44,7.76-4.88,18.23a2.29,2.29,0,0,1-2.21,1.7,2.46,2.46,0,0,1-.59-.08,2.29,2.29,0,0,1-1.62-2.81l3.7-13.81-7.35,4.25a2.31,2.31,0,0,1-1.15.31,2.29,2.29,0,0,1-1.14-4.27l7.35-4.25L383,384a2.29,2.29,0,1,1,1.18-4.42l18.24,4.88,13.43-7.76V357.33l-13.43-7.76-18.24,4.89a2.38,2.38,0,0,1-.59.07A2.29,2.29,0,0,1,383,350l13.81-3.7-7.35-4.24a2.29,2.29,0,0,1,2.28-4l7.36,4.25-3.7-13.81a2.29,2.29,0,0,1,4.42-1.19l4.88,18.24,13.44,7.75L435,343.67V328.16l-13.35-13.35a2.29,2.29,0,0,1,3.24-3.24L435,321.68v-8.49a2.29,2.29,0,1,1,4.58,0v8.49l10.11-10.11a2.29,2.29,0,0,1,3.24,3.24l-13.35,13.35v15.51l16.79,9.69,13.43-7.76,4.89-18.23a2.29,2.29,0,0,1,4.42,1.19l-3.7,13.81,7.35-4.25a2.29,2.29,0,1,1,2.29,4l-7.35,4.24,13.81,3.7a2.29,2.29,0,0,1-.59,4.5,2.32,2.32,0,0,1-.59-.07l-18.24-4.89-13.43,7.76v19.38l13.43,7.76,18.24-4.88a2.29,2.29,0,1,1,1.18,4.42ZM454,357.33l-16.79-9.69-16.79,9.69v19.38l16.79,9.7,16.79-9.7Z"/><path class="cls-2" d="M279.55,514.37a2.28,2.28,0,0,0-2.28-2.29,15.37,15.37,0,1,1,4-30.2,2.27,2.27,0,0,0,1.94-.36,2.31,2.31,0,0,0,.94-1.73,30.66,30.66,0,0,1,58.72-10.61,2.29,2.29,0,0,0,2.08,1.38,20.76,20.76,0,0,1-.2,41.52,2.29,2.29,0,0,0,0,4.58A25.34,25.34,0,0,0,346.43,466a35.24,35.24,0,0,0-66.65,10.89,19.34,19.34,0,0,0-2.51-.16,19.95,19.95,0,1,0,0,39.89A2.29,2.29,0,0,0,279.55,514.37Z"/><path class="cls-2" d="M344.82,480.89a10.45,10.45,0,0,1,10.33,10.42,2.29,2.29,0,0,0,4.58,0,15.06,15.06,0,0,0-14.87-15,2.29,2.29,0,0,0,0,4.58Z"/><path class="cls-2" d="M335.46,474.69a2.29,2.29,0,0,0,2.1-3.21,24.91,24.91,0,0,0-22.83-15,2.29,2.29,0,0,0,0,4.58,20.31,20.31,0,0,1,18.63,12.21A2.29,2.29,0,0,0,335.46,474.69Z"/><path class="cls-2" d="M330.07,522.37a1.72,1.72,0,0,0,.44-3.38l-2.1-.56,1.54-1.54a1.72,1.72,0,1,0-2.43-2.43L326,516l-.56-2.1a1.71,1.71,0,1,0-3.31.89l.56,2.1-2.1-.57a1.72,1.72,0,1,0-.89,3.32l2.1.56-1.54,1.54a1.72,1.72,0,1,0,2.43,2.43l1.54-1.54.56,2.1a1.73,1.73,0,0,0,1.66,1.28,1.61,1.61,0,0,0,.44-.06,1.72,1.72,0,0,0,1.22-2.1l-.57-2.11,2.11.57A1.67,1.67,0,0,0,330.07,522.37Z"/><path class="cls-2" d="M298.84,521a1.71,1.71,0,0,0,.44-3.37l-2.1-.57,1.53-1.53a1.71,1.71,0,0,0-2.42-2.43l-1.54,1.54-.57-2.11a1.71,1.71,0,1,0-3.31.89l.56,2.1-2.1-.56a1.72,1.72,0,0,0-.89,3.32l2.1.56L289,520.41a1.71,1.71,0,1,0,2.42,2.43L293,521.3l.57,2.1a1.7,1.7,0,0,0,1.65,1.27,1.4,1.4,0,0,0,.45-.06,1.71,1.71,0,0,0,1.21-2.1l-.56-2.1,2.1.56A1.74,1.74,0,0,0,298.84,521Z"/><path class="cls-2" d="M312.93,534.47a1.71,1.71,0,0,0,.44-3.37l-2.1-.57,1.54-1.54a1.71,1.71,0,0,0,0-2.42,1.69,1.69,0,0,0-2.42,0l-1.54,1.53-.57-2.1a1.71,1.71,0,1,0-3.31.89l.56,2.1-2.1-.56a1.71,1.71,0,1,0-.89,3.31l2.1.57-1.54,1.54a1.72,1.72,0,0,0,1.22,2.93,1.68,1.68,0,0,0,1.21-.51l1.54-1.53.56,2.1A1.72,1.72,0,0,0,311,536l-.56-2.1,2.1.56A1.67,1.67,0,0,0,312.93,534.47Z"/><path class="cls-2" d="M373.13,644.15a34.9,34.9,0,1,1-34.9-34.9A34.94,34.94,0,0,1,373.13,644.15Zm-4.57,0a30.33,30.33,0,1,0-30.33,30.33A30.36,30.36,0,0,0,368.56,644.15Z"/><path class="cls-2" d="M336.51,590.32v11.49a2.29,2.29,0,0,0,4.58,0V590.32a2.29,2.29,0,1,0-4.58,0Z"/><path class="cls-2" d="M310.67,595.26a2.29,2.29,0,0,0-.84,3.13l5.74,10a2.3,2.3,0,0,0,2,1.15,2.25,2.25,0,0,0,1.14-.31,2.3,2.3,0,0,0,.84-3.13l-5.75-9.95A2.29,2.29,0,0,0,310.67,595.26Z"/><path class="cls-2" d="M303,620.5,293,614.76a2.29,2.29,0,0,0-2.29,4l10,5.75a2.21,2.21,0,0,0,1.14.3,2.26,2.26,0,0,0,2-1.14A2.29,2.29,0,0,0,303,620.5Z"/><path class="cls-2" d="M298.18,643.58a2.29,2.29,0,0,0-2.29-2.29H284.4a2.29,2.29,0,0,0,0,4.58h11.49A2.3,2.3,0,0,0,298.18,643.58Z"/><path class="cls-2" d="M300.13,662.84l-9.95,5.75a2.29,2.29,0,0,0,1.15,4.27,2.34,2.34,0,0,0,1.14-.3l9.95-5.75a2.29,2.29,0,1,0-2.29-4Z"/><path class="cls-2" d="M314.58,679.39l-5.74,10a2.29,2.29,0,0,0,.84,3.13,2.24,2.24,0,0,0,1.14.3,2.26,2.26,0,0,0,2-1.14l5.75-10a2.29,2.29,0,0,0-4-2.29Z"/><path class="cls-2" d="M335.37,686.49V698a2.29,2.29,0,1,0,4.58,0V686.49a2.29,2.29,0,0,0-4.58,0Z"/><path class="cls-2" d="M357.76,679.13a2.29,2.29,0,0,0-.84,3.12l5.75,10a2.27,2.27,0,0,0,2,1.15,2.22,2.22,0,0,0,1.14-.31,2.28,2.28,0,0,0,.84-3.13L360.89,680A2.29,2.29,0,0,0,357.76,679.13Z"/><path class="cls-2" d="M373.47,667.8l9.95,5.75a2.34,2.34,0,0,0,1.14.3,2.29,2.29,0,0,0,1.15-4.27l-9.95-5.74a2.29,2.29,0,1,0-2.29,4Z"/><path class="cls-2" d="M394.35,644.73a2.28,2.28,0,0,0-2.29-2.29H380.57a2.29,2.29,0,1,0,0,4.57h11.49A2.28,2.28,0,0,0,394.35,644.73Z"/><path class="cls-2" d="M375.19,625.76a2.24,2.24,0,0,0,1.14-.3l9.95-5.74a2.29,2.29,0,1,0-2.29-4L374,621.49a2.29,2.29,0,0,0-.83,3.13A2.26,2.26,0,0,0,375.19,625.76Z"/><path class="cls-2" d="M358.75,609.75a2.28,2.28,0,0,0,3.13-.84l5.74-9.95a2.29,2.29,0,0,0-4-2.29l-5.74,10A2.29,2.29,0,0,0,358.75,609.75Z"/><path class="cls-2" d="M548.55,355.87a47.15,47.15,0,0,1-33.34-80.49l31.72-31.72a2.29,2.29,0,0,1,3.24,0l31.72,31.72a47.15,47.15,0,0,1-33.34,80.49Zm-30.1-17.05a42.57,42.57,0,0,0,60.2-60.21l-30.1-30.1-30.1,30.1A42.62,42.62,0,0,0,518.45,338.82Z"/><path class="cls-2" d="M548.55,338.31a29.6,29.6,0,0,1-20.93-50.52l19.31-19.31a2.29,2.29,0,0,1,3.24,0l19.3,19.31a29.59,29.59,0,0,1-20.92,50.52Zm0-4.58h0A25,25,0,0,0,566.24,291l-17.69-17.69L530.86,291a25,25,0,0,0,17.69,42.7Z"/><path class="cls-2" d="M209.63,588.94a27,27,0,0,1-38.19-38.18l17.48-17.47a2.29,2.29,0,0,1,3.24,0l17.46,17.47A27,27,0,0,1,209.63,588.94ZM206.39,554l-15.85-15.86L174.68,554a22.42,22.42,0,1,0,31.71,0Z"/><path class="cls-2" d="M204.77,555.61a2.29,2.29,0,0,0-3.24,3.24,15.57,15.57,0,0,1,0,22,2.28,2.28,0,0,0,0,3.24,2.28,2.28,0,0,0,3.23,0A20.16,20.16,0,0,0,204.77,555.61Z"/><path class="cls-2" d="M249.58,607.47a21.06,21.06,0,1,1-29.8,0l13.28-13.28a2.36,2.36,0,0,1,3.24,0Zm1.59,14.91a16.42,16.42,0,0,0-4.82-11.67L234.68,599,223,610.71a16.5,16.5,0,1,0,28.15,11.67Z"/><path class="cls-2" d="M244.3,622.38a9.61,9.61,0,0,1-9.62,9.63,2.29,2.29,0,1,0,0,4.57,14.19,14.19,0,0,0,14.2-14.2,2.29,2.29,0,0,0-4.58,0Z"/><path class="cls-2" d="M262.75,559.77a13.6,13.6,0,1,1-19.23,0l8-8a2.28,2.28,0,0,1,1.61-.67h0a2.29,2.29,0,0,1,1.62.67Zm-.61,9.62a9,9,0,0,0-2.63-6.38l-6.38-6.38L246.76,563a9,9,0,1,0,15.38,6.38Z"/><path class="cls-2" d="M255.06,565a1.72,1.72,0,0,0,0,2.43,2.74,2.74,0,0,1,0,3.85,1.72,1.72,0,0,0,1.21,2.93,1.75,1.75,0,0,0,1.22-.5,6.17,6.17,0,0,0,0-8.71A1.72,1.72,0,0,0,255.06,565Z"/><path class="cls-2" d="M506.57,223a2.29,2.29,0,0,1-4.58,0,10.77,10.77,0,1,0-21.54,0,2.29,2.29,0,1,1-4.58,0,10.77,10.77,0,1,0-21.54,0v38.68a11.68,11.68,0,0,1-23.35,0V259a2.29,2.29,0,0,1,4.58,0v2.69a7.1,7.1,0,1,0,14.19,0V223a10.77,10.77,0,1,0-21.54,0,2.29,2.29,0,1,1-4.58,0,10.77,10.77,0,1,0-21.54,0,2.29,2.29,0,1,1-4.58,0,54.53,54.53,0,1,1,109.06,0Zm-6.09-12.22a50,50,0,0,0-96.87,0,15.27,15.27,0,0,1,22.31,4.2A15.3,15.3,0,0,1,452,215a15.3,15.3,0,0,1,26.12,0,15.29,15.29,0,0,1,22.32-4.2Z"/><path class="cls-2" d="M517.27,628.8a2.29,2.29,0,1,0,0-4.57H503.35a15.37,15.37,0,1,1,4-30.2,2.29,2.29,0,0,0,2.88-2.09,30.66,30.66,0,0,1,58.72-10.61A2.27,2.27,0,0,0,571,582.7a20.77,20.77,0,0,1-.2,41.53H557.51a2.29,2.29,0,1,0,0,4.57H570.8a25.34,25.34,0,0,0,1.71-50.62,35.24,35.24,0,0,0-66.65,10.9,19.36,19.36,0,0,0-2.51-.17,19.95,19.95,0,1,0,0,39.89Z"/><path class="cls-2" d="M581.23,603.46a2.29,2.29,0,0,0,4.58,0,15.05,15.05,0,0,0-14.86-15h0a2.29,2.29,0,0,0,0,4.58A10.45,10.45,0,0,1,581.23,603.46Z"/><path class="cls-2" d="M559.45,585.46a2.29,2.29,0,0,0,4.19-1.83,24.9,24.9,0,0,0-22.83-15,2.29,2.29,0,0,0,0,4.58A20.33,20.33,0,0,1,559.45,585.46Z"/><path class="cls-2" d="M527.36,667.32,537,646.44H517.08a2.29,2.29,0,0,1-1.79-3.72l19.48-24.29a2.29,2.29,0,0,1,1.78-.86h11.86a2.29,2.29,0,0,1,1.88,3.6l-8.6,12.32h16a2.29,2.29,0,0,1,1.72,3.79l-28.23,32.49a2.27,2.27,0,0,1-1.73.79,2.37,2.37,0,0,1-1.24-.36A2.3,2.3,0,0,1,527.36,667.32Zm13.19-25.46a2.29,2.29,0,0,1,2.07,3.25l-4.4,9.58,14.43-16.61H537.3a2.29,2.29,0,0,1-1.87-3.6l8.6-12.33h-6.38l-15.8,19.71Z"/><path class="cls-2" d="M37.65,571.87H-10.74a2.27,2.27,0,0,1-2.06-1.3,2.29,2.29,0,0,1,.27-2.42L30.6,514.36a2.28,2.28,0,0,1,1.78-.85H58.64a2.28,2.28,0,0,1,1.87,3.6L38.43,548.77h40.7a2.29,2.29,0,0,1,1.73,3.79l-62.51,72a2.32,2.32,0,0,1-1.73.79,2.25,2.25,0,0,1-1.24-.37,2.28,2.28,0,0,1-.84-2.88Zm3.57-4.58a2.29,2.29,0,0,1,2.08,3.25L25.4,609.42l48.71-56.07H34a2.28,2.28,0,0,1-1.87-3.6l22.08-31.66H33.48L-6,567.29Z"/><path class="cls-2" d="M184.42,465.39a19.28,19.28,0,0,0-13.75,5.7l-64,64a2.3,2.3,0,0,0,0,3.24,2.29,2.29,0,0,0,3.24,0l64-64a14.87,14.87,0,1,1,0,21,2.28,2.28,0,0,0-3.23,3.23,19.45,19.45,0,1,0,13.75-33.21Z"/><path class="cls-2" d="M112.69,471.21a19.38,19.38,0,0,0,5.7,13.76,2.29,2.29,0,0,0,3.24-3.24,14.87,14.87,0,1,1,21,0l-32.62,32.61a2.29,2.29,0,0,0,3.24,3.24L145.9,485a19.45,19.45,0,1,0-33.21-13.75Z"/><path class="cls-2" d="M142,446.61a2.27,2.27,0,0,0,3.15-.71,14.88,14.88,0,1,1,25.15,15.9,2.29,2.29,0,1,0,3.87,2.44,19.45,19.45,0,0,0-32.89-20.79A2.3,2.3,0,0,0,142,446.61Z"/><path class="cls-2" d="M503.79,540.05a2.27,2.27,0,0,1,.11,2.65A53.18,53.18,0,1,1,442,463.47a2.29,2.29,0,0,1,2.66,3.41,48.6,48.6,0,0,0,56.6,72.41A2.29,2.29,0,0,1,503.79,540.05Zm-7.62,5.37a53.19,53.19,0,0,1-58.71-75.09,48.61,48.61,0,1,0,58.71,75.09Z"/><path class="cls-2" d="M491.83,464.74l.63-.46c1-.74.83-1.34-.43-1.34h-.79a3.38,3.38,0,0,1-3-2.18L488,460c-.39-1.19-1-1.19-1.42,0l-.24.74a3.39,3.39,0,0,1-3,2.18h-.78c-1.26,0-1.45.6-.44,1.34l.63.46a3.36,3.36,0,0,1,1.15,3.52l-.24.75c-.39,1.19.13,1.57,1.14.83l.64-.46a3.36,3.36,0,0,1,3.7,0l.63.46c1,.74,1.54.36,1.15-.83l-.24-.75A3.35,3.35,0,0,1,491.83,464.74Z"/><path class="cls-2" d="M461.46,504.06c-.89.89-.6,1.46.64,1.26l3.29-.52a3.37,3.37,0,0,1,3.3,1.69l1.51,3c.57,1.12,1.2,1,1.4-.22l.52-3.29a3.36,3.36,0,0,1,2.62-2.62l3.28-.52c1.24-.19,1.35-.82.22-1.39l-3-1.52a3.35,3.35,0,0,1-1.68-3.29l.52-3.29c.2-1.25-.37-1.54-1.26-.64L470.51,495a3.37,3.37,0,0,1-3.66.58l-3-1.51c-1.12-.57-1.57-.12-1,1l1.51,3a3.37,3.37,0,0,1-.58,3.66Z"/><path class="cls-2" d="M506.1,522.14l-.7-.36a3.36,3.36,0,0,1-1.68-3.3l.12-.77c.2-1.24-.37-1.53-1.26-.64l-.55.55a3.37,3.37,0,0,1-3.66.58l-.7-.36c-1.12-.57-1.57-.12-1,1l.36.69a3.37,3.37,0,0,1-.58,3.66l-.55.55c-.89.89-.6,1.46.64,1.27l.77-.13a3.38,3.38,0,0,1,3.3,1.68l.36.7c.57,1.12,1.2,1,1.39-.22l.13-.78a3.34,3.34,0,0,1,2.61-2.61l.78-.13C507.12,523.34,507.22,522.71,506.1,522.14Z"/><path class="cls-2" d="M278.63,341.74a2.27,2.27,0,0,0-2.1-1.4,2.29,2.29,0,0,0-2.11,1.4,12.72,12.72,0,0,1-23.43,0,2.29,2.29,0,0,0-4.22,0,12.72,12.72,0,0,1-23.43,0,2.29,2.29,0,0,0-4.22,0,12.72,12.72,0,0,1-24.43-4.95,2.29,2.29,0,1,0-4.58,0,17.3,17.3,0,0,0,31.12,10.4,17.32,17.32,0,0,0,27.65,0,17.32,17.32,0,0,0,27.65,0,17.3,17.3,0,0,0,31.11-10.4,2.29,2.29,0,1,0-4.57,0,12.72,12.72,0,0,1-24.44,4.95Z"/><path class="cls-2" d="M305.36,357.23a2.28,2.28,0,0,0-2.29,2.29,12.72,12.72,0,0,1-24.44,5,2.28,2.28,0,0,0-4.21,0,12.72,12.72,0,0,1-23.43,0,2.29,2.29,0,0,0-4.22,0,12.72,12.72,0,0,1-23.43,0,2.29,2.29,0,0,0-4.22,0,12.72,12.72,0,0,1-24.43-5,2.29,2.29,0,0,0-4.58,0,17.3,17.3,0,0,0,31.12,10.4,17.32,17.32,0,0,0,27.65,0,17.32,17.32,0,0,0,27.65,0,17.3,17.3,0,0,0,31.11-10.4A2.28,2.28,0,0,0,305.36,357.23Z"/><path class="cls-2" d="M305.36,380a2.29,2.29,0,0,0-2.29,2.29,12.72,12.72,0,0,1-24.44,4.95,2.27,2.27,0,0,0-2.1-1.39,2.3,2.3,0,0,0-2.11,1.39,12.72,12.72,0,0,1-23.43,0,2.3,2.3,0,0,0-4.22,0,12.72,12.72,0,0,1-23.43,0,2.3,2.3,0,0,0-4.22,0,12.72,12.72,0,0,1-24.43-4.95,2.29,2.29,0,0,0-4.58,0,17.3,17.3,0,0,0,31.12,10.4,17.3,17.3,0,0,0,27.65,0,17.3,17.3,0,0,0,27.65,0,17.29,17.29,0,0,0,31.11-10.4A2.29,2.29,0,0,0,305.36,380Z"/><path class="cls-2" d="M-92.7,467.05a20,20,0,0,1,20-19.94,19.34,19.34,0,0,1,2.51.16,35.21,35.21,0,0,1,34.95-30.74,35.23,35.23,0,0,1,31.7,19.85,25.42,25.42,0,0,1,23.64,25.28A25.37,25.37,0,0,1-5.3,487H-72.75A20,20,0,0,1-92.7,467.05Zm4.58,0a15.38,15.38,0,0,0,15.37,15.37H-5.3a20.79,20.79,0,0,0,20.77-20.76A20.83,20.83,0,0,0-5.1,440.9a2.3,2.3,0,0,1-2.08-1.38,30.67,30.67,0,0,0-28.11-18.41,30.63,30.63,0,0,0-30.61,29,2.28,2.28,0,0,1-.94,1.73,2.27,2.27,0,0,1-1.94.36,15.79,15.79,0,0,0-4-.54A15.39,15.39,0,0,0-88.12,467.05Z"/><path class="cls-2" d="M-5.2,451.23A10.46,10.46,0,0,1,5.13,461.66a2.29,2.29,0,0,0,4.58,0,15,15,0,0,0-14.86-15h0a2.28,2.28,0,0,0-2.28,2.26A2.27,2.27,0,0,0-5.2,451.23Z"/><path class="cls-2" d="M595.55,61.09a2.29,2.29,0,0,0-2.28-2.29,15.37,15.37,0,1,1,0-30.74,15.79,15.79,0,0,1,4,.54,2.27,2.27,0,0,0,1.94-.36,2.31,2.31,0,0,0,.94-1.73,30.66,30.66,0,0,1,58.72-10.6,2.3,2.3,0,0,0,2.08,1.37,20.76,20.76,0,0,1-.2,41.52,2.29,2.29,0,0,0,0,4.58,25.34,25.34,0,0,0,1.71-50.62,35.24,35.24,0,0,0-66.65,10.89,19.34,19.34,0,0,0-2.51-.16,19.95,19.95,0,1,0,0,39.89A2.29,2.29,0,0,0,595.55,61.09Z"/><path class="cls-2" d="M651.46,21.41a2.28,2.28,0,0,0,2.1-3.2,24.9,24.9,0,0,0-22.83-15,2.29,2.29,0,1,0,0,4.57A20.32,20.32,0,0,1,649.36,20,2.3,2.3,0,0,0,651.46,21.41Z"/><path class="cls-2" d="M614.84,67.76a1.72,1.72,0,0,0,.44-3.38l-2.1-.56,1.53-1.54a1.71,1.71,0,1,0-2.42-2.43l-1.54,1.54-.57-2.1a1.71,1.71,0,1,0-3.31.89l.56,2.1-2.1-.57a1.72,1.72,0,0,0-.89,3.32l2.1.56L605,67.13a1.7,1.7,0,0,0,0,2.43,1.71,1.71,0,0,0,2.42,0L609,68l.57,2.1a1.71,1.71,0,0,0,1.65,1.28,1.74,1.74,0,0,0,.45-.06,1.72,1.72,0,0,0,1.21-2.1l-.56-2.11,2.1.57A1.74,1.74,0,0,0,614.84,67.76Z"/><path class="cls-2" d="M628.93,81.19a1.71,1.71,0,0,0,.44-3.37l-2.1-.56,1.54-1.55a1.71,1.71,0,0,0-2.42-2.42l-1.54,1.54-.57-2.11a1.71,1.71,0,0,0-3.31.89l.56,2.1-2.1-.56a1.72,1.72,0,0,0-.89,3.32l2.1.56-1.54,1.54a1.72,1.72,0,0,0,0,2.43,1.75,1.75,0,0,0,1.22.5,1.71,1.71,0,0,0,1.21-.5l1.54-1.54.56,2.1a1.72,1.72,0,0,0,1.66,1.27,1.74,1.74,0,0,0,.45-.06,1.71,1.71,0,0,0,1.21-2.1l-.56-2.1,2.1.56A1.67,1.67,0,0,0,628.93,81.19Z"/><path class="cls-2" d="M689.13,190.88A34.9,34.9,0,1,1,654.23,156,34.94,34.94,0,0,1,689.13,190.88Zm-4.57,0a30.33,30.33,0,1,0-30.33,30.32A30.36,30.36,0,0,0,684.56,190.88Z"/><path class="cls-2" d="M626.67,142a2.28,2.28,0,0,0-.84,3.12l5.74,9.95a2.3,2.3,0,0,0,2,1.15,2.25,2.25,0,0,0,1.14-.31,2.29,2.29,0,0,0,.84-3.12l-5.75-10A2.29,2.29,0,0,0,626.67,142Z"/><path class="cls-2" d="M619,167.23l-10-5.75a2.29,2.29,0,0,0-2.29,4l10,5.74a2.22,2.22,0,0,0,1.14.31,2.29,2.29,0,0,0,1.14-4.27Z"/><path class="cls-2" d="M614.18,190.3a2.3,2.3,0,0,0-2.29-2.29H600.4a2.29,2.29,0,1,0,0,4.58h11.49A2.3,2.3,0,0,0,614.18,190.3Z"/><path class="cls-2" d="M616.13,209.57l-10,5.74a2.29,2.29,0,0,0,1.15,4.27,2.24,2.24,0,0,0,1.14-.3l9.95-5.75a2.29,2.29,0,1,0-2.29-4Z"/><path class="cls-2" d="M630.58,226.11l-5.74,9.95a2.29,2.29,0,0,0,.84,3.13,2.27,2.27,0,0,0,3.12-.84l5.75-9.95a2.29,2.29,0,0,0-4-2.29Z"/><path class="cls-2" d="M525.63,135.67a27,27,0,0,1-38.19-38.19L504.92,80a2.29,2.29,0,0,1,3.24,0l17.46,17.47A27,27,0,0,1,525.63,135.67Zm-3.24-34.95L506.54,84.86l-15.86,15.86a22.42,22.42,0,1,0,31.71,0Z"/><path class="cls-2" d="M520.77,102.34a2.29,2.29,0,0,0-3.24,3.23,15.59,15.59,0,0,1,0,22,2.28,2.28,0,1,0,3.23,3.23A20.15,20.15,0,0,0,520.77,102.34Z"/><path class="cls-2" d="M565.58,154.2a21.06,21.06,0,1,1-29.8,0l13.28-13.29a2.36,2.36,0,0,1,3.24,0Zm1.59,14.9a16.44,16.44,0,0,0-4.82-11.67l-11.67-11.66L539,157.43a16.5,16.5,0,1,0,28.15,11.67Z"/><path class="cls-2" d="M560.3,169.1a9.61,9.61,0,0,1-9.62,9.63,2.29,2.29,0,1,0,0,4.58,14.2,14.2,0,0,0,14.2-14.21,2.29,2.29,0,0,0-4.58,0Z"/><path class="cls-2" d="M578.75,106.5a13.6,13.6,0,1,1-19.23,0l8-8a2.28,2.28,0,0,1,1.61-.67h0a2.29,2.29,0,0,1,1.62.67Zm-.61,9.61a9,9,0,0,0-2.63-6.38l-6.38-6.37-6.37,6.37a9,9,0,1,0,15.38,6.38Z"/><path class="cls-2" d="M571.06,111.76a1.71,1.71,0,0,0,0,2.42,2.73,2.73,0,0,1,.79,1.93,2.69,2.69,0,0,1-.79,1.92,1.72,1.72,0,0,0,0,2.43,1.67,1.67,0,0,0,1.21.5,1.71,1.71,0,0,0,1.22-.5,6.16,6.16,0,0,0,0-8.7A1.72,1.72,0,0,0,571.06,111.76Z"/><path class="cls-2" d="M353.65,118.6H305.26a2.3,2.3,0,0,1-1.79-3.73L346.6,61.09a2.26,2.26,0,0,1,1.78-.86h26.26a2.28,2.28,0,0,1,1.87,3.6L354.43,95.5h40.7a2.29,2.29,0,0,1,1.73,3.79l-62.51,72a2.29,2.29,0,0,1-1.73.79,2.25,2.25,0,0,1-1.24-.37,2.28,2.28,0,0,1-.84-2.88Zm3.57-4.58a2.3,2.3,0,0,1,1.93,1,2.28,2.28,0,0,1,.15,2.19l-17.9,38.88,48.71-56.07H350a2.27,2.27,0,0,1-1.87-3.59l22.08-31.66H349.48L310,114Z"/><path class="cls-2" d="M500.42,12.12a19.31,19.31,0,0,0-13.75,5.69l-64,64a2.29,2.29,0,0,0,1.62,3.91,2.27,2.27,0,0,0,1.62-.67l64-64a14.88,14.88,0,1,1,0,21,2.28,2.28,0,1,0-3.23,3.23,19.45,19.45,0,1,0,13.75-33.2Z"/><path class="cls-2" d="M428.69,17.93a19.36,19.36,0,0,0,5.7,13.76,2.29,2.29,0,1,0,3.24-3.24,14.87,14.87,0,1,1,21,0L426.05,61.06a2.3,2.3,0,0,0,0,3.24,2.29,2.29,0,0,0,3.24,0L461.9,31.69a19.46,19.46,0,1,0-33.21-13.76Z"/><path class="cls-2" d="M458-6.67a2.27,2.27,0,0,0,3.15-.71,14.78,14.78,0,0,1,9.31-6.56A14.72,14.72,0,0,1,481.68-12,14.89,14.89,0,0,1,486.3,8.52,2.29,2.29,0,0,0,490.17,11a19.48,19.48,0,0,0-6.05-26.84,19.32,19.32,0,0,0-14.67-2.54,19.34,19.34,0,0,0-12.17,8.58A2.3,2.3,0,0,0,458-6.67Z"/><path class="cls-2" d="M223.3,13.78A20,20,0,0,1,243.25-6.17a19.36,19.36,0,0,1,2.51.17,35.22,35.22,0,0,1,34.95-30.75,35.23,35.23,0,0,1,31.7,19.85A25.43,25.43,0,0,1,336.05,8.38,25.37,25.37,0,0,1,310.7,33.72H243.25A20,20,0,0,1,223.3,13.78Zm4.58,0a15.38,15.38,0,0,0,15.37,15.36H310.7A20.79,20.79,0,0,0,331.47,8.38,20.83,20.83,0,0,0,310.9-12.38a2.31,2.31,0,0,1-2.08-1.37,30.66,30.66,0,0,0-28.11-18.42,30.63,30.63,0,0,0-30.61,29,2.32,2.32,0,0,1-.94,1.74,2.34,2.34,0,0,1-1.94.36,15.31,15.31,0,0,0-19.34,14.83Z"/><path class="cls-2" d="M310.8-2A10.45,10.45,0,0,1,321.13,8.38a2.29,2.29,0,1,0,4.58,0,15.05,15.05,0,0,0-14.86-15h0a2.28,2.28,0,0,0-2.28,2.27A2.29,2.29,0,0,0,310.8-2Z"/><path class="cls-2" d="M-36.45,61.09a2.29,2.29,0,0,0-2.28-2.29A15.39,15.39,0,0,1-54.11,43.43,15.4,15.4,0,0,1-38.73,28.06a15.79,15.79,0,0,1,4,.54,2.27,2.27,0,0,0,1.94-.36,2.31,2.31,0,0,0,.94-1.73,30.63,30.63,0,0,1,30.61-29A30.66,30.66,0,0,1,26.84,15.91a2.3,2.3,0,0,0,2.08,1.37,20.76,20.76,0,0,1-.2,41.52,2.29,2.29,0,1,0,0,4.58,25.34,25.34,0,0,0,1.71-50.62A35.24,35.24,0,0,0-1.27-7.09,35.22,35.22,0,0,0-36.22,23.65a19.34,19.34,0,0,0-2.51-.16,20,20,0,0,0-20,19.94,20,20,0,0,0,20,20A2.29,2.29,0,0,0-36.45,61.09Z"/><path class="cls-2" d="M28.82,27.61A10.46,10.46,0,0,1,39.15,38a2.29,2.29,0,1,0,4.58,0A15,15,0,0,0,28.86,23a2.29,2.29,0,1,0,0,4.57Z"/><path class="cls-2" d="M19.46,21.41a2.28,2.28,0,0,0,2.1-3.2,24.9,24.9,0,0,0-22.83-15A2.29,2.29,0,0,0-3.56,5.53,2.29,2.29,0,0,0-1.27,7.82,20.32,20.32,0,0,1,17.36,20,2.3,2.3,0,0,0,19.46,21.41Z"/><path class="cls-2" d="M14.07,69.09a1.72,1.72,0,0,0,.44-3.38l-2.1-.56L14,63.61a1.72,1.72,0,1,0-2.43-2.43L10,62.72l-.56-2.1a1.71,1.71,0,0,0-3.31.89l.56,2.1-2.1-.56a1.71,1.71,0,1,0-.89,3.31l2.1.57L4.24,68.47a1.71,1.71,0,1,0,2.43,2.42l1.54-1.54.56,2.11a1.73,1.73,0,0,0,1.66,1.27,1.61,1.61,0,0,0,.44-.06,1.72,1.72,0,0,0,1.22-2.1l-.57-2.1,2.11.56A1.67,1.67,0,0,0,14.07,69.09Z"/><path class="cls-2" d="M57.13,190.88A34.9,34.9,0,1,1,22.23,156,34.94,34.94,0,0,1,57.13,190.88Zm-4.57,0A30.33,30.33,0,1,0,22.23,221.2,30.36,30.36,0,0,0,52.56,190.88Z"/><path class="cls-2" d="M20.51,137v11.49a2.29,2.29,0,0,0,4.58,0V137a2.29,2.29,0,0,0-4.58,0Z"/><path class="cls-2" d="M-5.33,142a2.28,2.28,0,0,0-.84,3.12l5.74,9.95a2.3,2.3,0,0,0,2,1.15,2.25,2.25,0,0,0,1.14-.31,2.29,2.29,0,0,0,.84-3.12l-5.75-10A2.29,2.29,0,0,0-5.33,142Z"/><path class="cls-2" d="M-1.42,226.11l-5.74,9.95a2.29,2.29,0,0,0,.84,3.13,2.25,2.25,0,0,0,1.14.31,2.27,2.27,0,0,0,2-1.15l5.75-9.95a2.29,2.29,0,0,0-.84-3.12A2.29,2.29,0,0,0-1.42,226.11Z"/><path class="cls-2" d="M19.37,233.22v11.49a2.29,2.29,0,0,0,4.58,0V233.22a2.29,2.29,0,1,0-4.58,0Z"/><path class="cls-2" d="M41.76,225.85a2.3,2.3,0,0,0-.84,3.13l5.75,9.94a2.27,2.27,0,0,0,2,1.15,2.22,2.22,0,0,0,1.14-.31,2.27,2.27,0,0,0,.84-3.12l-5.74-9.95A2.29,2.29,0,0,0,41.76,225.85Z"/><path class="cls-2" d="M57.47,214.53l10,5.74a2.24,2.24,0,0,0,1.14.3,2.28,2.28,0,0,0,1.15-4.26l-9.95-5.75a2.29,2.29,0,0,0-2.29,4Z"/><path class="cls-2" d="M78.35,191.45a2.28,2.28,0,0,0-2.29-2.29H64.57a2.29,2.29,0,1,0,0,4.58H76.06A2.29,2.29,0,0,0,78.35,191.45Z"/><path class="cls-2" d="M59.19,172.49a2.25,2.25,0,0,0,1.14-.31l10-5.74a2.29,2.29,0,1,0-2.29-4L58,168.22a2.29,2.29,0,0,0,1.15,4.27Z"/><path class="cls-2" d="M42.75,156.47a2.29,2.29,0,0,0,3.13-.83l5.74-10a2.28,2.28,0,1,0-4-2.28l-5.74,9.95A2.28,2.28,0,0,0,42.75,156.47Z"/><path class="cls-2" d="M201.27,175.53a2.29,2.29,0,0,0,0-4.58H187.35a15.37,15.37,0,1,1,4-30.2,2.27,2.27,0,0,0,1.94-.36,2.3,2.3,0,0,0,.94-1.73,30.66,30.66,0,0,1,58.72-10.61,2.3,2.3,0,0,0,2.08,1.38,20.76,20.76,0,0,1-.2,41.52H241.51a2.29,2.29,0,0,0,0,4.58H254.8a25.34,25.34,0,0,0,1.71-50.63,35.24,35.24,0,0,0-66.65,10.9,19.36,19.36,0,0,0-2.51-.17,20,20,0,1,0,0,39.9Z"/><path class="cls-2" d="M265.23,150.18a2.29,2.29,0,0,0,4.58,0,15.05,15.05,0,0,0-14.86-15h0a2.29,2.29,0,0,0,0,4.58A10.45,10.45,0,0,1,265.23,150.18Z"/><path class="cls-2" d="M243.45,132.18a2.29,2.29,0,1,0,4.19-1.83,24.9,24.9,0,0,0-22.83-15,2.29,2.29,0,0,0,0,4.58A20.33,20.33,0,0,1,243.45,132.18Z"/><path class="cls-2" d="M211.36,214.05,221,193.16H201.08a2.29,2.29,0,0,1-1.79-3.72l19.48-24.29a2.28,2.28,0,0,1,1.78-.85h11.86a2.29,2.29,0,0,1,1.88,3.6l-8.6,12.32h16a2.29,2.29,0,0,1,1.72,3.79l-28.23,32.5a2.3,2.3,0,0,1-1.73.78,2.37,2.37,0,0,1-1.24-.36A2.29,2.29,0,0,1,211.36,214.05Zm13.19-25.46a2.28,2.28,0,0,1,2.07,3.24l-4.4,9.58,14.43-16.61H221.3a2.29,2.29,0,0,1-1.87-3.6l8.6-12.32h-6.38l-15.8,19.71Z"/><path class="cls-2" d="M187.79,86.77a2.28,2.28,0,0,1,.11,2.66A53.18,53.18,0,1,1,126,10.19a2.3,2.3,0,0,1,2.55.76,2.27,2.27,0,0,1,.11,2.65A48.6,48.6,0,0,0,185.24,86,2.29,2.29,0,0,1,187.79,86.77Zm-7.62,5.37a53.19,53.19,0,0,1-58.71-75.09,48.61,48.61,0,1,0,58.71,75.09Z"/><path class="cls-2" d="M175.83,11.46l.63-.46c1-.74.83-1.34-.43-1.34h-.79a3.37,3.37,0,0,1-3-2.18L172,6.74c-.39-1.2-1-1.2-1.42,0l-.24.74a3.37,3.37,0,0,1-3,2.18h-.78c-1.26,0-1.45.6-.44,1.34l.63.46A3.37,3.37,0,0,1,167.91,15l-.24.75c-.39,1.2.13,1.57,1.14.83l.64-.46a3.36,3.36,0,0,1,3.7,0l.63.46c1,.74,1.54.37,1.15-.83l-.24-.75A3.36,3.36,0,0,1,175.83,11.46Z"/><path class="cls-2" d="M145.46,50.79c-.89.89-.6,1.45.64,1.26l3.29-.52a3.37,3.37,0,0,1,3.3,1.68l1.51,3c.57,1.12,1.2,1,1.4-.22l.52-3.29a3.34,3.34,0,0,1,2.62-2.61l3.28-.52c1.24-.2,1.35-.83.22-1.4l-3-1.51a3.37,3.37,0,0,1-1.68-3.3l.52-3.29c.2-1.24-.37-1.53-1.26-.64l-2.35,2.35a3.37,3.37,0,0,1-3.66.58l-3-1.51c-1.12-.57-1.57-.12-1,1l1.51,3a3.36,3.36,0,0,1-.58,3.65Z"/><path class="cls-2" d="M190.1,68.86l-.7-.35a3.37,3.37,0,0,1-1.68-3.3l.12-.78c.2-1.24-.37-1.53-1.26-.64l-.55.55a3.37,3.37,0,0,1-3.66.58l-.7-.35c-1.12-.57-1.57-.12-1,1l.36.7a3.36,3.36,0,0,1-.58,3.65l-.55.56c-.89.89-.6,1.45.64,1.26l.77-.13a3.39,3.39,0,0,1,3.3,1.69L185,74c.57,1.12,1.2,1,1.39-.22l.13-.77a3.35,3.35,0,0,1,2.61-2.62l.78-.12C191.12,70.06,191.22,69.43,190.1,68.86Z"/></pattern></defs><title>profil</title><rect class="cls-3" width="2599.71" height="1461.63"/><rect class="cls-4" width="2599.71" height="1461.63"/></svg>